<svg width="187" height="61" viewBox="0 0 187 61" fill="none" xmlns="http://www.w3.org/2000/svg">
<rect width="187" height="61" rx="4" fill="black"/>
<path d="M46.2802 30.9167C46.2951 29.7596 46.6012 28.625 47.1702 27.6186C47.7392 26.6122 48.5526 25.7666 49.5345 25.1605C48.9107 24.2661 48.0877 23.53 47.131 23.0107C46.1742 22.4914 45.11 22.2033 44.0229 22.1691C41.7039 21.9248 39.4558 23.5622 38.2741 23.5622C37.0695 23.5622 35.2501 22.1934 33.2909 22.2339C32.0236 22.275 30.7886 22.6449 29.7061 23.3077C28.6236 23.9705 27.7305 24.9034 27.114 26.0157C24.4432 30.6578 26.4353 37.4802 28.9937 41.2325C30.2737 43.07 31.7697 45.1224 33.7272 45.0496C35.6426 44.9699 36.358 43.8234 38.6702 43.8234C40.9609 43.8234 41.632 45.0496 43.6292 45.0033C45.6846 44.9698 46.9796 43.1577 48.2147 41.3029C49.1344 39.9937 49.8421 38.5467 50.3116 37.0156C49.1175 36.5086 48.0984 35.6599 47.3815 34.5753C46.6646 33.4908 46.2816 32.2184 46.2802 30.9167Z" fill="white"/>
<path d="M42.5083 19.7017C43.629 18.3511 44.1811 16.6151 44.0474 14.8624C42.3352 15.043 40.7537 15.8645 39.6178 17.1632C39.0625 17.7977 38.6372 18.5359 38.3662 19.3355C38.0951 20.1351 37.9838 20.9805 38.0384 21.8234C38.8948 21.8322 39.742 21.6459 40.5163 21.2784C41.2905 20.9109 41.9716 20.3718 42.5083 19.7017Z" fill="white"/>
<path d="M70.4947 40.3985H63.9581L62.3883 45.0518H59.6196L65.811 27.8359H68.6876L74.879 45.0518H72.0631L70.4947 40.3985ZM64.6351 38.2513H69.8164L67.2622 30.6994H67.1907L64.6351 38.2513Z" fill="white"/>
<path d="M88.2505 38.7763C88.2505 42.6768 86.1709 45.1828 83.0328 45.1828C82.2378 45.2245 81.4472 45.0407 80.7515 44.6523C80.0558 44.264 79.483 43.6868 79.0989 42.9868H79.0395V49.2038H76.4731V32.4997H78.9573V34.5874H79.0045C79.4063 33.8908 79.9887 33.3166 80.6897 32.9258C81.3907 32.5351 82.1842 32.3425 82.9856 32.3684C86.1587 32.3684 88.2505 34.8866 88.2505 38.7763ZM85.6126 38.7763C85.6126 36.2351 84.3045 34.5644 82.3085 34.5644C80.3477 34.5644 79.0288 36.2703 79.0288 38.7763C79.0288 41.3053 80.3477 42.999 82.3085 42.999C84.3045 42.999 85.6126 41.3405 85.6126 38.7763Z" fill="white"/>
<path d="M102.011 38.7763C102.011 42.6768 99.9317 45.1828 96.7935 45.1828C95.9985 45.2245 95.2079 45.0407 94.5122 44.6523C93.8165 44.264 93.2438 43.6867 92.8596 42.9868H92.8003V49.2038H90.2339V32.4997H92.718V34.5874H92.7652C93.167 33.8908 93.7494 33.3166 94.4504 32.9258C95.1514 32.5351 95.9448 32.3425 96.7463 32.3684C99.9195 32.3684 102.011 34.8866 102.011 38.7763ZM99.3734 38.7763C99.3734 36.2351 98.0652 34.5644 96.0693 34.5644C94.1084 34.5644 92.7895 36.2703 92.7895 38.7763C92.7895 41.3053 94.1084 42.999 96.0693 42.999C98.0652 42.999 99.3734 41.3405 99.3734 38.7763H99.3734Z" fill="white"/>
<path d="M111.106 40.2549C111.296 41.9621 112.948 43.083 115.206 43.083C117.369 43.083 118.925 41.962 118.925 40.4227C118.925 39.0864 117.987 38.2863 115.764 37.738L113.542 37.2005C110.393 36.4369 108.931 34.9584 108.931 32.5594C108.931 29.589 111.509 27.5487 115.171 27.5487C118.794 27.5487 121.279 29.589 121.362 32.5594H118.771C118.616 30.8413 117.202 29.8043 115.134 29.8043C113.067 29.8043 111.652 30.8535 111.652 32.3807C111.652 33.5978 112.556 34.314 114.766 34.8623L116.656 35.328C120.174 36.1633 121.636 37.5822 121.636 40.1004C121.636 43.3213 119.08 45.3385 115.016 45.3385C111.213 45.3385 108.645 43.3686 108.479 40.2547L111.106 40.2549Z" fill="white"/>
<path d="M127.175 29.5294V32.4998H129.553V34.5401H127.175V41.4597C127.175 42.5347 127.651 43.0356 128.696 43.0356C128.979 43.0307 129.26 43.0108 129.541 42.976V45.0041C129.071 45.0923 128.593 45.1322 128.115 45.1233C125.584 45.1233 124.597 44.1688 124.597 41.7345V34.5401H122.779V32.4998H124.597V29.5294H127.175Z" fill="white"/>
<path d="M130.929 38.7765C130.929 34.8272 133.246 32.3456 136.859 32.3456C140.484 32.3456 142.79 34.8272 142.79 38.7765C142.79 42.7365 140.496 45.2073 136.859 45.2073C133.223 45.2073 130.929 42.7365 130.929 38.7765ZM140.175 38.7765C140.175 36.0674 138.939 34.4685 136.859 34.4685C134.779 34.4685 133.544 36.0796 133.544 38.7765C133.544 41.4964 134.779 43.0831 136.859 43.0831C138.939 43.0831 140.175 41.4964 140.175 38.7765H140.175Z" fill="white"/>
<path d="M144.905 32.5001H147.353V34.6365H147.412C147.578 33.9693 147.967 33.3796 148.515 32.9666C149.063 32.5536 149.735 32.3425 150.42 32.3688C150.715 32.3677 151.01 32.4 151.299 32.4649V34.8748C150.926 34.7602 150.536 34.7077 150.146 34.7191C149.773 34.7039 149.401 34.7699 149.056 34.9125C148.711 35.0552 148.401 35.2711 148.147 35.5454C147.893 35.8198 147.701 36.1461 147.585 36.5019C147.468 36.8577 147.429 37.2347 147.472 37.6069V45.0518H144.905L144.905 32.5001Z" fill="white"/>
<path d="M163.132 41.3651C162.787 43.6436 160.577 45.2073 157.749 45.2073C154.112 45.2073 151.854 42.7609 151.854 38.836C151.854 34.899 154.124 32.3456 157.641 32.3456C161.1 32.3456 163.275 34.7311 163.275 38.5368V39.4196H154.445V39.5752C154.404 40.0372 154.462 40.5025 154.614 40.9404C154.766 41.3783 155.009 41.7786 155.327 42.1149C155.645 42.4512 156.031 42.7156 156.459 42.8907C156.886 43.0658 157.346 43.1476 157.808 43.1305C158.415 43.1875 159.023 43.0465 159.543 42.7285C160.064 42.4104 160.468 41.9322 160.695 41.3651L163.132 41.3651ZM154.457 37.6189H160.708C160.731 37.2036 160.668 36.7879 160.523 36.3981C160.379 36.0082 160.155 35.6525 159.868 35.3534C159.58 35.0543 159.233 34.8181 158.85 34.6598C158.467 34.5014 158.055 34.4243 157.641 34.4332C157.223 34.4307 156.809 34.5114 156.422 34.6704C156.035 34.8295 155.684 35.0639 155.388 35.3601C155.092 35.6562 154.857 36.0083 154.697 36.396C154.537 36.7837 154.456 37.1994 154.457 37.6189V37.6189Z" fill="white"/>
<path d="M62.8102 18.3745H63.912C64.1016 18.3982 64.2941 18.3822 64.4773 18.3275C64.6605 18.2729 64.8305 18.1807 64.9764 18.0568C65.1224 17.9329 65.2412 17.78 65.3254 17.6077C65.4096 17.4355 65.4573 17.2475 65.4655 17.0558C65.4655 16.2929 64.8937 15.8001 63.9241 15.8001C63.7298 15.7729 63.532 15.785 63.3424 15.8357C63.1528 15.8865 62.9753 15.9748 62.8203 16.0956C62.6653 16.2164 62.536 16.3671 62.44 16.5389C62.3439 16.7107 62.2832 16.9 62.2613 17.0958H61.0516C61.0724 16.7405 61.1658 16.3932 61.3261 16.0757C61.4864 15.7583 61.7101 15.4773 61.9832 15.2503C62.2563 15.0234 62.5731 14.8553 62.9137 14.7566C63.2543 14.6578 63.6116 14.6305 63.9632 14.6764C65.5855 14.6764 66.7279 15.5882 66.7279 16.9008C66.7317 17.3405 66.5851 17.7683 66.3127 18.1126C66.0402 18.4569 65.6584 18.6971 65.2309 18.7929V18.8903C65.7377 18.9129 66.215 19.136 66.5584 19.5108C66.9019 19.8857 67.0835 20.3818 67.0636 20.8907C67.0261 21.2565 66.9163 21.6112 66.7405 21.9338C66.5646 22.2565 66.3265 22.5407 66.0398 22.7697C65.7532 22.9988 65.4239 23.1681 65.0713 23.2677C64.7186 23.3674 64.3497 23.3953 63.9861 23.35C63.6218 23.3998 63.2512 23.3756 62.8965 23.2786C62.5417 23.1816 62.21 23.0139 61.9212 22.7855C61.6324 22.557 61.3923 22.2726 61.2154 21.949C61.0384 21.6255 60.9281 21.2694 60.8911 20.9022H62.1197C62.1939 21.6935 62.9181 22.204 63.9861 22.204C65.0542 22.204 65.7515 21.6306 65.7515 20.8224C65.7515 20.0026 65.0947 19.4976 63.947 19.4976H62.8102V18.3745Z" fill="white"/>
<path d="M68.46 21.3836C68.46 20.2599 69.2947 19.6121 70.7728 19.52L72.4572 19.4225V18.8837C72.4572 18.2244 72.0243 17.8521 71.1841 17.8521C70.499 17.8521 70.0257 18.1046 69.8881 18.5459H68.7C68.8254 17.4737 69.8315 16.7859 71.2421 16.7859C72.8011 16.7859 73.6804 17.565 73.6804 18.8837V23.1491H72.4977V22.2718H72.4006C72.2035 22.5865 71.9267 22.843 71.5986 23.0152C71.2704 23.1874 70.9026 23.2691 70.5328 23.2519C70.2717 23.2792 70.0079 23.2512 69.7582 23.1699C69.5086 23.0885 69.2788 22.9555 69.0835 22.7795C68.8882 22.6034 68.7318 22.3883 68.6244 22.1479C68.517 21.9074 68.461 21.6471 68.46 21.3836ZM72.4572 20.8502V20.3283L70.9386 20.4258C70.0823 20.4833 69.6939 20.7757 69.6939 21.3261C69.6939 21.8879 70.1794 22.2149 70.847 22.2149C71.0426 22.2348 71.2402 22.215 71.428 22.1566C71.6158 22.0983 71.79 22.0026 71.9403 21.8752C72.0905 21.7479 72.2137 21.5916 72.3025 21.4155C72.3913 21.2394 72.4439 21.0471 72.4572 20.8502Z" fill="white"/>
<path d="M76.9362 17.9439V23.1496H75.709V16.9069H79.8034V17.9439L76.9362 17.9439Z" fill="white"/>
<path d="M87.2411 20.0251C87.2411 22.0085 86.2418 23.252 84.6721 23.252C84.2867 23.2785 83.9019 23.1938 83.5629 23.008C83.2238 22.8223 82.9447 22.5431 82.7584 22.2035H82.6613V25.2246H81.4341V16.9064H82.6155V17.9381H82.7072C82.8968 17.5866 83.1796 17.2945 83.5242 17.0942C83.8688 16.8939 84.2618 16.7931 84.6599 16.8029C86.2418 16.8029 87.2411 18.041 87.2411 20.0251ZM85.9789 20.0251C85.9789 18.7064 85.3571 17.9097 84.3174 17.9097C83.2844 17.9097 82.6384 18.7233 82.6384 20.0305C82.6384 21.3316 83.2844 22.1459 84.312 22.1459C85.3571 22.1459 85.9789 21.3492 85.9789 20.0251Z" fill="white"/>
<path d="M88.8756 25.3855V24.3247C89.0084 24.3417 89.1422 24.3494 89.2761 24.3477C89.5375 24.3672 89.7969 24.289 90.0045 24.1282C90.2121 23.9674 90.3532 23.7354 90.4008 23.4765L90.4925 23.1726L88.2417 16.9069H89.5782L91.1372 21.8654H91.2343L92.7879 16.9069H94.0893L91.771 23.4075C91.2397 24.9265 90.6517 25.4139 89.384 25.4139C89.2815 25.4139 88.9902 25.4024 88.8756 25.3855Z" fill="white"/>
<path d="M95.0459 21.3759H96.2677C96.3878 21.9263 96.9016 22.2133 97.6204 22.2133C98.4376 22.2133 98.9393 21.8518 98.9393 21.2899C98.9393 20.6881 98.4889 20.4011 97.6204 20.4011H96.6898V19.4439H97.6042C98.3459 19.4439 98.7235 19.1576 98.7235 18.6357C98.7235 18.1774 98.3581 17.8274 97.6042 17.8274C96.9177 17.8274 96.4161 18.1199 96.3365 18.6127H95.1538C95.2422 18.0464 95.5485 17.5376 96.0067 17.1957C96.465 16.8537 97.0386 16.706 97.6042 16.7843C99.0822 16.7843 99.9278 17.4551 99.9278 18.5098C99.9347 18.8035 99.841 19.0907 99.6623 19.3233C99.4836 19.5559 99.2307 19.7199 98.946 19.7879V19.8853C99.285 19.9292 99.5961 20.0965 99.8203 20.3554C100.045 20.6143 100.166 20.9469 100.162 21.29C100.162 22.4767 99.1564 23.2619 97.6204 23.2619C96.2623 23.2618 95.1592 22.637 95.0459 21.3759Z" fill="white"/>
<path d="M101.93 23.1496V16.9069H103.146V21.2007H103.243L106.109 16.9069H107.325V23.1496H106.109V18.8328H106.017L103.146 23.1496L101.93 23.1496Z" fill="white"/>
<path d="M114.026 17.9439H112.068V23.1495H110.84V17.9439H108.881V16.9069H114.026V17.9439Z" fill="white"/>
<path d="M120.637 21.4636C120.47 22.0341 120.108 22.5275 119.615 22.8577C119.123 23.1878 118.53 23.3336 117.941 23.2697C117.531 23.2805 117.124 23.2018 116.748 23.0388C116.372 22.8759 116.035 22.6327 115.762 22.3261C115.488 22.0195 115.285 21.6569 115.165 21.2634C115.045 20.87 115.012 20.455 115.069 20.0475C115.014 19.6387 115.048 19.2228 115.167 18.8282C115.286 18.4335 115.489 18.0692 115.761 17.76C116.033 17.4507 116.368 17.2037 116.743 17.0357C117.118 16.8676 117.525 16.7825 117.936 16.786C119.666 16.786 120.711 17.9727 120.711 19.933V20.363H116.32V20.432C116.301 20.6611 116.329 20.8918 116.404 21.1092C116.478 21.3266 116.598 21.526 116.754 21.6944C116.909 21.8628 117.099 21.9966 117.309 22.0872C117.52 22.1778 117.747 22.2232 117.976 22.2204C118.269 22.2556 118.567 22.2025 118.83 22.0677C119.093 21.9329 119.31 21.7227 119.454 21.4636L120.637 21.4636ZM116.32 19.4518H119.46C119.475 19.2424 119.447 19.032 119.376 18.8342C119.306 18.6364 119.195 18.4556 119.051 18.3033C118.907 18.151 118.733 18.0306 118.54 17.9499C118.347 17.8692 118.139 17.8299 117.93 17.8346C117.718 17.8317 117.507 17.8715 117.31 17.9518C117.114 18.032 116.935 18.1511 116.785 18.3018C116.635 18.4526 116.516 18.632 116.437 18.8295C116.357 19.0271 116.317 19.2386 116.32 19.4518H116.32Z" fill="white"/>
<path d="M125.84 16.9069H128.644C129.86 16.9069 130.573 17.5256 130.573 18.4942C130.575 18.8016 130.472 19.1003 130.281 19.3404C130.09 19.5804 129.822 19.7472 129.523 19.8129V19.9104C129.886 19.9334 130.226 20.0956 130.474 20.3634C130.721 20.6313 130.857 20.9843 130.853 21.3496C130.853 22.4387 130.037 23.1495 128.672 23.1495H125.84V16.9069ZM127.056 17.8525V19.469H128.273C129.014 19.469 129.369 19.1827 129.369 18.6547C129.369 18.168 129.06 17.8525 128.409 17.8525L127.056 17.8525ZM127.056 20.3748V22.2039H128.511C129.237 22.2039 129.625 21.8824 129.625 21.2921C129.625 20.6673 129.186 20.3748 128.358 20.3748L127.056 20.3748Z" fill="white"/>
</svg>
