<svg width="123" height="40" viewBox="0 0 123 40" fill="none" xmlns="http://www.w3.org/2000/svg">
<rect width="123" height="40" rx="4" fill="black"/>
<path d="M30.4409 20.2734C30.4507 19.5146 30.652 18.7707 31.0263 18.1107C31.4006 17.4507 31.9355 16.8963 32.5814 16.4988C32.1711 15.9123 31.6298 15.4296 31.0005 15.0891C30.3712 14.7486 29.6712 14.5597 28.9561 14.5373C27.4308 14.3771 25.9521 15.4508 25.1748 15.4508C24.3825 15.4508 23.1858 14.5532 21.8971 14.5797C21.0636 14.6067 20.2512 14.8493 19.5392 15.2839C18.8271 15.7185 18.2397 16.3303 17.8342 17.0596C16.0775 20.1036 17.3878 24.5773 19.0706 27.0379C19.9126 28.2427 20.8965 29.5886 22.1841 29.5409C23.444 29.4886 23.9145 28.7368 25.4353 28.7368C26.9421 28.7368 27.3835 29.5409 28.6972 29.5105C30.0491 29.4886 30.9009 28.3003 31.7133 27.084C32.3182 26.2255 32.7837 25.2767 33.0925 24.2727C32.3071 23.9402 31.6368 23.3837 31.1653 22.6725C30.6937 21.9613 30.4418 21.1269 30.4409 20.2734Z" fill="white"/>
<path d="M27.9599 12.9191C28.697 12.0335 29.0602 10.8952 28.9722 9.74585C27.8461 9.86423 26.8058 10.4029 26.0587 11.2546C25.6934 11.6706 25.4136 12.1547 25.2354 12.679C25.0571 13.2034 24.9839 13.7577 25.0198 14.3104C25.5831 14.3162 26.1404 14.194 26.6496 13.953C27.1589 13.712 27.6069 13.3585 27.9599 12.9191Z" fill="white"/>
<path d="M46.3675 26.4907H42.068L41.0355 29.542H39.2144L43.2868 18.2529H45.1788L49.2513 29.542H47.3991L46.3675 26.4907ZM42.5133 25.0827H45.9213L44.2413 20.1306H44.1943L42.5133 25.0827Z" fill="white"/>
<path d="M58.0464 25.427C58.0464 27.9847 56.6786 29.628 54.6144 29.628C54.0915 29.6554 53.5715 29.5349 53.1139 29.2802C52.6563 29.0255 52.2796 28.647 52.0269 28.188H51.9878V32.2647H50.2998V21.3113H51.9338V22.6802H51.9648C52.2291 22.2234 52.6122 21.8469 53.0733 21.5907C53.5344 21.3345 54.0562 21.2081 54.5834 21.2252C56.6705 21.2252 58.0464 22.8764 58.0464 25.427ZM56.3113 25.427C56.3113 23.7607 55.4509 22.6651 54.1381 22.6651C52.8483 22.6651 51.9808 23.7837 51.9808 25.427C51.9808 27.0854 52.8483 28.196 54.1381 28.196C55.4509 28.196 56.3113 27.1085 56.3113 25.427Z" fill="white"/>
<path d="M67.0977 25.427C67.0977 27.9847 65.7298 29.628 63.6657 29.628C63.1428 29.6554 62.6228 29.5349 62.1652 29.2802C61.7076 29.0255 61.3308 28.647 61.0782 28.188H61.0391V32.2647H59.3511V21.3113H60.985V22.6802H61.016C61.2803 22.2234 61.6634 21.8469 62.1245 21.5907C62.5856 21.3345 63.1075 21.2081 63.6346 21.2252C65.7219 21.2252 67.0977 22.8764 67.0977 25.427ZM65.3626 25.427C65.3626 23.7607 64.5022 22.6651 63.1893 22.6651C61.8996 22.6651 61.032 23.7837 61.032 25.427C61.032 27.0854 61.8996 28.196 63.1893 28.196C64.5022 28.196 65.3626 27.1085 65.3626 25.427H65.3626Z" fill="white"/>
<path d="M73.0802 26.3966C73.2052 27.5161 74.2919 28.2511 75.7768 28.2511C77.1996 28.2511 78.2232 27.5161 78.2232 26.5066C78.2232 25.6304 77.6059 25.1057 76.144 24.7462L74.6822 24.3937C72.6109 23.893 71.6494 22.9235 71.6494 21.3504C71.6494 19.4026 73.3454 18.0647 75.7537 18.0647C78.1372 18.0647 79.7711 19.4026 79.8261 21.3504H78.1221C78.0201 20.2238 77.0896 19.5438 75.7297 19.5438C74.3699 19.5438 73.4394 20.2318 73.4394 21.2332C73.4394 22.0313 74.0337 22.501 75.4876 22.8605L76.7303 23.1659C79.0446 23.7136 80.0062 24.6441 80.0062 26.2953C80.0062 28.4074 78.3252 29.7302 75.6517 29.7302C73.1502 29.7302 71.4613 28.4384 71.3522 26.3965L73.0802 26.3966Z" fill="white"/>
<path d="M83.6493 19.3635V21.3113H85.2132V22.6492H83.6493V27.1867C83.6493 27.8916 83.9625 28.2201 84.6499 28.2201C84.8356 28.2168 85.0209 28.2038 85.2052 28.181V29.5109C84.8961 29.5687 84.582 29.5948 84.2676 29.589C82.6026 29.589 81.9533 28.9631 81.9533 27.3669V22.6492H80.7576V21.3113H81.9533V19.3635H83.6493Z" fill="white"/>
<path d="M86.1187 25.4272C86.1187 22.8375 87.6426 21.2102 90.019 21.2102C92.4034 21.2102 93.9202 22.8375 93.9202 25.4272C93.9202 28.024 92.4113 29.6441 90.019 29.6441C87.6275 29.6441 86.1187 28.0239 86.1187 25.4272ZM92.2002 25.4272C92.2002 23.6507 91.3868 22.6023 90.019 22.6023C88.6512 22.6023 87.8386 23.6587 87.8386 25.4272C87.8386 27.2107 88.6512 28.2512 90.019 28.2512C91.3868 28.2512 92.2002 27.2107 92.2002 25.4272H92.2002Z" fill="white"/>
<path d="M95.3118 21.3114H96.9218V22.7123H96.9608C97.0697 22.2748 97.3259 21.8881 97.6861 21.6173C98.0463 21.3465 98.4887 21.2081 98.9389 21.2253C99.1335 21.2246 99.3275 21.2458 99.5173 21.2883V22.8686C99.2717 22.7935 99.0155 22.759 98.7588 22.7665C98.5136 22.7566 98.2691 22.7998 98.0422 22.8934C97.8152 22.9869 97.6112 23.1285 97.4441 23.3084C97.277 23.4883 97.1507 23.7022 97.0741 23.9356C96.9974 24.1689 96.972 24.4161 96.9998 24.6601V29.5421H95.3118L95.3118 21.3114Z" fill="white"/>
<path d="M107.301 27.1246C107.074 28.6188 105.62 29.6441 103.76 29.6441C101.367 29.6441 99.8823 28.0399 99.8823 25.4662C99.8823 22.8846 101.375 21.2102 103.689 21.2102C105.964 21.2102 107.395 22.7745 107.395 25.27V25.8489H101.586V25.951C101.56 26.2539 101.597 26.559 101.698 26.8462C101.798 27.1333 101.958 27.3958 102.167 27.6163C102.376 27.8368 102.63 28.0102 102.911 28.1251C103.192 28.2399 103.495 28.2935 103.799 28.2823C104.198 28.3197 104.598 28.2272 104.94 28.0186C105.282 27.8101 105.548 27.4965 105.698 27.1246L107.301 27.1246ZM101.594 24.6681H105.706C105.721 24.3958 105.68 24.1232 105.585 23.8676C105.49 23.6119 105.343 23.3787 105.153 23.1826C104.964 22.9864 104.736 22.8315 104.484 22.7277C104.232 22.6239 103.961 22.5733 103.689 22.5792C103.414 22.5775 103.141 22.6304 102.887 22.7347C102.633 22.839 102.401 22.9927 102.207 23.1869C102.012 23.3811 101.858 23.612 101.752 23.8662C101.647 24.1205 101.594 24.393 101.594 24.6681V24.6681Z" fill="white"/>
<path d="M41.313 12.0488H42.0378C42.1625 12.0643 42.2891 12.0538 42.4096 12.018C42.5301 11.9821 42.6419 11.9217 42.7379 11.8404C42.8339 11.7592 42.9121 11.6589 42.9674 11.546C43.0228 11.433 43.0542 11.3098 43.0596 11.1841C43.0596 10.6838 42.6835 10.3607 42.0457 10.3607C41.9179 10.3428 41.7878 10.3507 41.6631 10.384C41.5384 10.4173 41.4217 10.4752 41.3197 10.5544C41.2178 10.6336 41.1327 10.7325 41.0695 10.8451C41.0064 10.9577 40.9664 11.0819 40.952 11.2103H40.1563C40.17 10.9773 40.2315 10.7496 40.3369 10.5414C40.4423 10.3332 40.5894 10.149 40.7691 10.0001C40.9488 9.85132 41.1571 9.7411 41.3812 9.67636C41.6052 9.61161 41.8402 9.59372 42.0714 9.6238C43.1386 9.6238 43.8899 10.2217 43.8899 11.0824C43.8924 11.3708 43.796 11.6512 43.6168 11.877C43.4376 12.1028 43.1865 12.2603 42.9053 12.3231V12.387C43.2386 12.4018 43.5526 12.5481 43.7785 12.7939C44.0044 13.0397 44.1239 13.365 44.1108 13.6987C44.0861 13.9386 44.0138 14.1712 43.8982 14.3828C43.7826 14.5944 43.6259 14.7807 43.4374 14.9309C43.2488 15.0811 43.0322 15.1921 42.8003 15.2575C42.5683 15.3228 42.3257 15.3411 42.0865 15.3114C41.8469 15.3441 41.6032 15.3282 41.3698 15.2646C41.1365 15.201 40.9183 15.091 40.7283 14.9412C40.5384 14.7914 40.3805 14.6049 40.264 14.3927C40.1476 14.1805 40.0751 13.9471 40.0508 13.7063H40.8589C40.9077 14.2252 41.384 14.5599 42.0865 14.5599C42.7891 14.5599 43.2477 14.1839 43.2477 13.6539C43.2477 13.1164 42.8157 12.7852 42.0608 12.7852H41.313V12.0488Z" fill="white"/>
<path d="M45.0291 14.022C45.0291 13.2851 45.5781 12.8603 46.5503 12.8L47.6583 12.736V12.3827C47.6583 11.9503 47.3735 11.7062 46.8209 11.7062C46.3703 11.7062 46.0589 11.8718 45.9684 12.1612H45.1869C45.2694 11.4581 45.9312 11.0071 46.859 11.0071C47.8845 11.0071 48.4628 11.518 48.4628 12.3827V15.1797H47.6849V14.6044H47.621C47.4914 14.8107 47.3093 14.979 47.0935 15.0919C46.8777 15.2048 46.6357 15.2584 46.3924 15.2471C46.2207 15.265 46.0472 15.2466 45.883 15.1933C45.7188 15.1399 45.5676 15.0527 45.4392 14.9373C45.3107 14.8219 45.2078 14.6808 45.1372 14.5231C45.0666 14.3655 45.0297 14.1948 45.0291 14.022ZM47.6583 13.6722V13.33L46.6594 13.3939C46.0961 13.4316 45.8407 13.6234 45.8407 13.9843C45.8407 14.3527 46.16 14.5671 46.5991 14.5671C46.7278 14.5801 46.8577 14.5671 46.9813 14.5289C47.1048 14.4906 47.2194 14.4279 47.3182 14.3444C47.4171 14.2609 47.4981 14.1583 47.5565 14.0429C47.6149 13.9274 47.6495 13.8013 47.6583 13.6722Z" fill="white"/>
<path d="M50.6053 11.7665V15.18H49.7981V11.0864H52.4912V11.7664L50.6053 11.7665Z" fill="white"/>
<path d="M57.3831 13.1312C57.3831 14.4318 56.7258 15.2472 55.6933 15.2472C55.4398 15.2645 55.1867 15.209 54.9637 15.0872C54.7407 14.9654 54.5571 14.7823 54.4346 14.5596H54.3707V16.5407H53.5635V11.0861H54.3405V11.7627H54.4009C54.5256 11.5322 54.7116 11.3406 54.9382 11.2093C55.1649 11.0779 55.4234 11.0118 55.6853 11.0183C56.7258 11.0182 57.3831 11.8301 57.3831 13.1312ZM56.5528 13.1312C56.5528 12.2665 56.1439 11.744 55.46 11.744C54.7806 11.744 54.3556 12.2775 54.3556 13.1347C54.3556 13.9879 54.7805 14.5219 55.4564 14.5219C56.1439 14.5219 56.5528 13.9994 56.5528 13.1312Z" fill="white"/>
<path d="M58.4582 16.6462V15.9506C58.5456 15.9617 58.6336 15.9667 58.7216 15.9657C58.8936 15.9784 59.0642 15.9272 59.2008 15.8217C59.3373 15.7163 59.4301 15.5641 59.4614 15.3944L59.5217 15.1951L58.0413 11.0864H58.9203L59.9458 14.3379H60.0096L61.0315 11.0864H61.8875L60.3627 15.3491C60.0132 16.3452 59.6265 16.6648 58.7926 16.6648C58.7252 16.6648 58.5336 16.6573 58.4582 16.6462Z" fill="white"/>
<path d="M62.5168 14.017H63.3205C63.3995 14.3779 63.7374 14.5661 64.2102 14.5661C64.7478 14.5661 65.0777 14.3291 65.0777 13.9606C65.0777 13.566 64.7815 13.3778 64.2102 13.3778H63.5982V12.7502H64.1996C64.6874 12.7502 64.9358 12.5624 64.9358 12.2202C64.9358 11.9196 64.6954 11.6902 64.1996 11.6902C63.7481 11.6902 63.4181 11.8819 63.3657 12.2051H62.5878C62.646 11.8337 62.8474 11.5001 63.1488 11.2759C63.4502 11.0517 63.8275 10.9548 64.1996 11.0061C65.1718 11.0061 65.7279 11.446 65.7279 12.1376C65.7325 12.3302 65.6708 12.5185 65.5533 12.671C65.4357 12.8236 65.2694 12.9311 65.0822 12.9757V13.0396C65.3051 13.0684 65.5098 13.1781 65.6572 13.3478C65.8047 13.5176 65.8848 13.7357 65.8823 13.9607C65.8823 14.7388 65.2206 15.2537 64.2102 15.2537C63.317 15.2537 62.5914 14.844 62.5168 14.017Z" fill="white"/>
<path d="M67.0444 15.18V11.0864H67.8445V13.902H67.9084L69.7934 11.0864H70.5935V15.18H69.7934V12.3493H69.7331L67.8445 15.18L67.0444 15.18Z" fill="white"/>
<path d="M75.0011 11.7664H73.7131V15.18H72.905V11.7664H71.6169V11.0864H75.0011V11.7664Z" fill="white"/>
<path d="M79.3495 14.0744C79.2395 14.4486 79.0017 14.7721 78.6776 14.9886C78.3535 15.205 77.9637 15.3007 77.5763 15.2587C77.3068 15.2659 77.039 15.2142 76.7915 15.1074C76.544 15.0005 76.3226 14.841 76.1429 14.64C75.9631 14.439 75.8292 14.2012 75.7505 13.9432C75.6717 13.6852 75.65 13.4131 75.6869 13.1458C75.651 12.8777 75.6731 12.6051 75.7516 12.3463C75.8302 12.0875 75.9634 11.8486 76.1422 11.6458C76.321 11.443 76.5413 11.2811 76.7881 11.1709C77.0349 11.0607 77.3025 11.0048 77.5727 11.0071C78.7108 11.0071 79.3983 11.7853 79.3983 13.0708V13.3527H76.5101V13.398C76.4973 13.5482 76.516 13.6995 76.5651 13.8421C76.6142 13.9846 76.6926 14.1153 76.7952 14.2258C76.8978 14.3362 77.0223 14.424 77.1608 14.4834C77.2993 14.5428 77.4487 14.5725 77.5994 14.5707C77.7923 14.5938 77.9878 14.5589 78.1609 14.4706C78.334 14.3822 78.4769 14.2443 78.5716 14.0744L79.3495 14.0744ZM76.51 12.7552H78.5751C78.5853 12.6179 78.5667 12.4799 78.5204 12.3503C78.4742 12.2206 78.4014 12.102 78.3067 12.0021C78.212 11.9022 78.0974 11.8233 77.9704 11.7704C77.8434 11.7174 77.7067 11.6917 77.5692 11.6947C77.4295 11.6928 77.2909 11.719 77.1615 11.7716C77.0321 11.8242 76.9146 11.9023 76.8159 12.0011C76.7171 12.1 76.6392 12.2177 76.5867 12.3472C76.5342 12.4767 76.5081 12.6154 76.5101 12.7552H76.51Z" fill="white"/>
<path d="M82.7715 11.0864H84.6156C85.4158 11.0864 85.885 11.4921 85.885 12.1273C85.8863 12.3289 85.8183 12.5248 85.6925 12.6822C85.5667 12.8396 85.3907 12.949 85.194 12.992V13.056C85.4329 13.0711 85.6568 13.1774 85.8196 13.353C85.9824 13.5287 86.0715 13.7601 86.0686 13.9997C86.0686 14.7139 85.532 15.18 84.6343 15.18H82.7715V11.0864ZM83.5716 11.7065V12.7665H84.3717C84.8596 12.7665 85.0929 12.5788 85.0929 12.2325C85.0929 11.9134 84.8898 11.7065 84.4613 11.7065L83.5716 11.7065ZM83.5716 13.3605V14.5599H84.5288C85.006 14.5599 85.2615 14.349 85.2615 13.962C85.2615 13.5523 84.9723 13.3605 84.4276 13.3605L83.5716 13.3605Z" fill="white"/>
</svg>
