<svg width="187" height="61" viewBox="0 0 187 61" fill="none" xmlns="http://www.w3.org/2000/svg">
<rect width="187" height="61" rx="4" fill="black"/>
<path d="M94.3312 32.9956C91.0067 32.9956 88.3749 35.4911 88.3749 38.957C88.3749 42.2843 91.0067 44.9184 94.3312 44.9184C97.6556 44.9184 100.287 42.4229 100.287 38.957C100.287 35.3525 97.6556 32.9956 94.3312 32.9956ZM94.3312 42.4229C92.5304 42.4229 91.0067 40.8979 91.0067 38.8184C91.0067 36.7388 92.5304 35.2138 94.3312 35.2138C96.1319 35.2138 97.6556 36.6002 97.6556 38.8184C97.6556 40.8979 96.1319 42.4229 94.3312 42.4229ZM81.4489 32.9956C78.1245 32.9956 75.4926 35.4911 75.4926 38.957C75.4926 42.2843 78.1245 44.9184 81.4489 44.9184C84.7734 44.9184 87.4052 42.4229 87.4052 38.957C87.4052 35.3525 84.7734 32.9956 81.4489 32.9956ZM81.4489 42.4229C79.6482 42.4229 78.1245 40.8979 78.1245 38.8184C78.1245 36.7388 79.6482 35.2138 81.4489 35.2138C83.2497 35.2138 84.7734 36.6002 84.7734 38.8184C84.7734 40.8979 83.2497 42.4229 81.4489 42.4229ZM66.0734 34.7979V37.2934H72.0297C71.8912 38.6797 71.3371 39.7888 70.6445 40.482C69.8134 41.3138 68.4282 42.2843 66.0734 42.2843C62.3334 42.2843 59.563 39.3729 59.563 35.6297C59.563 31.8866 62.4719 28.9752 66.0734 28.9752C68.0126 28.9752 69.5363 29.807 70.6445 30.7775L72.4452 28.9752C70.9215 27.5888 68.9823 26.4797 66.2119 26.4797C61.2252 26.4797 56.9312 30.6388 56.9312 35.6297C56.9312 40.6206 61.2252 44.7797 66.2119 44.7797C68.9823 44.7797 70.9215 43.9479 72.5837 42.1456C74.246 40.482 74.8 38.1252 74.8 36.3229C74.8 35.7684 74.8 35.2138 74.6615 34.7979H66.0734ZM128.961 36.7388C128.407 35.3525 127.022 32.9956 123.974 32.9956C120.927 32.9956 118.433 35.3525 118.433 38.957C118.433 42.2843 120.927 44.9184 124.251 44.9184C126.883 44.9184 128.545 43.2547 129.099 42.2843L127.16 40.8979C126.467 41.8684 125.636 42.5616 124.251 42.5616C122.866 42.5616 122.035 42.007 121.342 40.7593L129.238 37.432L128.961 36.7388ZM120.927 38.6797C120.927 36.4616 122.727 35.2138 123.974 35.2138C124.944 35.2138 125.913 35.7684 126.19 36.4616L120.927 38.6797ZM114.416 44.3638H117.048V27.0343H114.416V44.3638ZM110.261 34.2434C109.568 33.5502 108.46 32.857 107.075 32.857C104.166 32.857 101.396 35.4911 101.396 38.8184C101.396 42.1456 104.027 44.6411 107.075 44.6411C108.46 44.6411 109.568 43.9479 110.122 43.2547H110.261V44.0866C110.261 46.3047 109.014 47.5525 107.075 47.5525C105.551 47.5525 104.443 46.4434 104.166 45.4729L101.95 46.4434C102.642 47.9684 104.304 49.9093 107.213 49.9093C110.261 49.9093 112.754 48.107 112.754 43.8093V33.2729H110.261V34.2434ZM107.213 42.4229C105.413 42.4229 103.889 40.8979 103.889 38.8184C103.889 36.7388 105.413 35.2138 107.213 35.2138C109.014 35.2138 110.399 36.7388 110.399 38.8184C110.399 40.8979 109.014 42.4229 107.213 42.4229ZM141.012 27.0343H134.779V44.3638H137.41V37.8479H141.012C143.921 37.8479 146.691 35.7684 146.691 32.4411C146.691 29.1138 143.921 27.0343 141.012 27.0343ZM141.15 35.3525H137.41V29.3911H141.15C143.09 29.3911 144.198 31.0547 144.198 32.3025C144.059 33.8275 142.951 35.3525 141.15 35.3525ZM157.08 32.857C155.141 32.857 153.202 33.6888 152.509 35.4911L154.864 36.4616C155.418 35.4911 156.249 35.2138 157.219 35.2138C158.604 35.2138 159.85 36.0456 159.989 37.432V37.5706C159.573 37.2934 158.465 36.8775 157.357 36.8775C154.864 36.8775 152.37 38.2638 152.37 40.7593C152.37 43.1161 154.448 44.6411 156.664 44.6411C158.465 44.6411 159.296 43.8093 159.989 42.9775H160.127V44.3638H162.621V37.7093C162.344 34.6593 159.989 32.857 157.08 32.857ZM156.803 42.4229C155.972 42.4229 154.725 42.007 154.725 40.8979C154.725 39.5116 156.249 39.0956 157.496 39.0956C158.604 39.0956 159.158 39.3729 159.85 39.6502C159.573 41.3138 158.188 42.4229 156.803 42.4229ZM171.347 33.2729L168.439 40.7593H168.3L165.253 33.2729H162.482L167.053 43.8093L164.422 49.632H167.053L174.118 33.2729H171.347ZM148.076 44.3638H150.708V27.0343H148.076V44.3638Z" fill="white"/>
<path d="M14.4071 13.1704C13.9915 13.5863 13.853 14.2795 13.853 15.1113V45.75C13.853 46.5818 14.1301 47.275 14.5456 47.6909L14.6841 47.8295L31.8604 30.6386V30.5V30.3613L14.4071 13.1704Z" fill="url(#paint0_linear)"/>
<path d="M37.4004 36.4612L31.7212 30.7771V30.4999V30.3612L37.4004 24.6771L37.539 24.8158L44.3264 28.6976C46.2656 29.8067 46.2656 31.6089 44.3264 32.718L37.4004 36.4612Z" fill="url(#paint1_linear)"/>
<path d="M37.5388 36.3227L31.7211 30.5L14.4062 47.8295C15.0988 48.5227 16.0685 48.5227 17.3151 47.9682L37.5388 36.3227Z" fill="url(#paint2_linear)"/>
<path d="M37.5388 24.6775L17.3151 13.1707C16.0685 12.4775 15.0988 12.6162 14.4062 13.3093L31.7211 30.5002L37.5388 24.6775Z" fill="url(#paint3_linear)"/>
<path opacity="0.2" d="M37.4003 36.1842L17.3151 47.5524C16.207 48.2456 15.2374 48.1069 14.5448 47.5524L14.4062 47.691L14.5448 47.8297C15.2374 48.3842 16.207 48.5228 17.3151 47.8297L37.4003 36.1842Z" fill="white"/>
<path opacity="0.12" d="M14.4073 47.552C13.9916 47.1361 13.853 46.4429 13.853 45.6111V45.7497C13.853 46.5815 14.1302 47.2747 14.5458 47.6906V47.552H14.4073Z" fill="white"/>
<path opacity="0.12" d="M44.3263 32.3023L37.4004 36.1841L37.5389 36.3227L44.3263 32.4409C45.2959 31.8864 45.7115 31.1932 45.7115 30.5C45.7115 31.1932 45.1574 31.7477 44.3263 32.3023Z" fill="white"/>
<path opacity="0.25" d="M17.316 13.3094L44.3271 28.698C45.1582 29.2526 45.7123 29.8071 45.7123 30.5003C45.7123 29.8071 45.2967 29.1139 44.3271 28.5594L17.316 13.1708C15.3767 12.0617 13.853 12.8935 13.853 15.1117V15.2503C13.853 13.1708 15.3767 12.2003 17.316 13.3094Z" fill="white"/>
<path d="M58.3163 22.5984H57.3467V19.8256H58.1778C58.8704 19.2711 59.2859 18.162 59.2859 16.637V12.4779H64.8267V19.8256H65.7963V22.5984H64.8267V20.7961H58.4548V22.5984H58.3163ZM60.2556 16.637C60.2556 17.8847 59.9785 18.9938 59.4245 19.8256H63.58V13.4484H60.117V16.637H60.2556Z" fill="white" stroke="white" stroke-width="0.2" stroke-miterlimit="10"/>
<path d="M73.9689 19.6867C73.1378 20.5185 72.1682 20.9344 70.9215 20.9344C69.6749 20.9344 68.7052 20.5185 67.8741 19.6867C67.043 18.8549 66.6274 17.8844 66.6274 16.6367C66.6274 15.389 67.043 14.4185 67.8741 13.5867C68.7052 12.7549 69.6749 12.339 70.9215 12.339C72.1682 12.339 73.1378 12.7549 73.9689 13.5867C74.8 14.4185 75.2156 15.389 75.2156 16.6367C75.2156 17.8844 74.8 18.8549 73.9689 19.6867ZM68.7052 18.9935C69.2593 19.5481 70.0904 19.964 70.9215 19.964C71.7526 19.964 72.5837 19.6867 73.1378 18.9935C73.6919 18.439 74.1074 17.6072 74.1074 16.6367C74.1074 15.6663 73.8304 14.8344 73.1378 14.2799C72.5837 13.7254 71.7526 13.3094 70.9215 13.3094C70.0904 13.3094 69.2593 13.5867 68.7052 14.2799C68.1511 14.8344 67.7356 15.6663 67.7356 16.6367C67.7356 17.6072 68.0126 18.439 68.7052 18.9935Z" fill="white" stroke="white" stroke-width="0.2" stroke-miterlimit="10"/>
<path d="M80.6178 20.9344C79.3711 20.9344 78.4015 20.5185 77.5704 19.6867C76.7393 18.8549 76.3237 17.8844 76.3237 16.6367C76.3237 15.389 76.7393 14.4185 77.5704 13.5867C78.4015 12.7549 79.3711 12.339 80.6178 12.339C81.8645 12.339 82.8341 12.7549 83.6652 13.7254L82.9726 14.4185C82.4186 13.7254 81.5874 13.3094 80.6178 13.3094C79.6482 13.3094 78.9556 13.5867 78.263 14.2799C77.5704 14.8344 77.2934 15.6663 77.2934 16.6367C77.2934 17.6072 77.5704 18.439 78.263 18.9935C78.8171 19.5481 79.6482 19.964 80.6178 19.964C81.5874 19.964 82.4185 19.5481 83.1111 18.7163L83.8037 19.4094C83.3882 19.8254 82.9726 20.2413 82.4185 20.5185C81.8645 20.7958 81.3104 20.9344 80.6178 20.9344Z" fill="white" stroke="white" stroke-width="0.2" stroke-miterlimit="10"/>
<path d="M88.2359 20.7965H87.1278V13.4487H84.7729V12.4783H90.4522V13.4487H88.0974V20.7965H88.2359Z" fill="white" stroke="white" stroke-width="0.2" stroke-miterlimit="10"/>
<path d="M97.7939 12.4783L94.608 19.5487C94.1924 20.5192 93.4998 21.0737 92.6687 21.0737C92.3917 21.0737 92.1146 21.0737 91.8376 20.9351L92.1146 19.9646C92.2532 20.1033 92.5302 20.1033 92.6687 20.1033C92.9458 20.1033 93.0843 20.1033 93.2228 19.9646C93.3613 19.826 93.4998 19.6874 93.6383 19.4101L93.9154 18.7169L91.145 12.6169H92.3917L94.4695 17.3305L96.5472 12.4783H97.7939Z" fill="white" stroke="white" stroke-width="0.2" stroke-miterlimit="10"/>
<path d="M99.0405 20.7965V12.4783H104.997V20.7965H103.889V13.4487H100.01V20.7965H99.0405Z" fill="white" stroke="white" stroke-width="0.2" stroke-miterlimit="10"/>
<path d="M106.938 20.7965V12.4783H108.046V16.0828H112.201V12.4783H113.309V20.7965H112.201V17.0533H108.046V20.7965H106.938Z" fill="white" stroke="white" stroke-width="0.2" stroke-miterlimit="10"/>
<path d="M122.035 19.6867C121.204 20.5185 120.234 20.9344 118.987 20.9344C117.741 20.9344 116.771 20.5185 115.94 19.6867C115.109 18.8549 114.693 17.8844 114.693 16.6367C114.693 15.389 115.109 14.4185 115.94 13.5867C116.771 12.7549 117.741 12.339 118.987 12.339C120.234 12.339 121.204 12.7549 122.035 13.5867C122.866 14.4185 123.282 15.389 123.282 16.6367C123.143 17.8844 122.727 18.8549 122.035 19.6867ZM116.633 18.9935C117.187 19.5481 118.018 19.964 118.849 19.964C119.68 19.964 120.511 19.6867 121.065 18.9935C121.619 18.439 122.035 17.6072 122.035 16.6367C122.035 15.6663 121.758 14.8344 121.065 14.2799C120.511 13.7254 119.68 13.3094 118.849 13.3094C118.018 13.3094 117.187 13.5867 116.633 14.2799C116.079 14.8344 115.663 15.6663 115.663 16.6367C115.663 17.6072 116.079 18.439 116.633 18.9935Z" fill="white" stroke="white" stroke-width="0.2" stroke-miterlimit="10"/>
<path d="M127.576 20.7965V12.4783H130.623C131.316 12.4783 131.87 12.7555 132.285 13.1715C132.701 13.5874 132.978 14.1419 132.978 14.6965C132.978 15.1124 132.839 15.3896 132.701 15.8055C132.562 16.0828 132.285 16.3601 131.87 16.4987C132.285 16.6374 132.562 16.9146 132.839 17.1919C133.116 17.4692 133.255 17.8851 133.255 18.4396C133.255 19.1328 132.978 19.6874 132.562 20.1033C132.008 20.5192 131.454 20.7965 130.762 20.7965H127.576ZM128.684 16.0828H130.623C131.039 16.0828 131.316 15.9442 131.593 15.6669C131.87 15.3896 132.008 15.1124 132.008 14.8351C132.008 14.5578 131.731 14.1419 131.593 13.8646C131.316 13.5874 131.039 13.4487 130.623 13.4487H128.684V16.0828ZM128.684 19.826H130.9C131.316 19.826 131.593 19.6874 131.87 19.4101C132.147 19.1328 132.285 18.8555 132.285 18.4396C132.285 18.1624 132.147 17.7465 131.87 17.4692C131.593 17.1919 131.316 17.0533 130.9 17.0533H128.822V19.826H128.684Z" fill="white" stroke="white" stroke-width="0.2" stroke-miterlimit="10"/>
<defs>
<linearGradient id="paint0_linear" x1="30.1977" y1="14.8476" x2="6.93116" y2="38.0944" gradientUnits="userSpaceOnUse">
<stop stop-color="#00A0FF"/>
<stop offset="0.00657445" stop-color="#00A1FF"/>
<stop offset="0.2601" stop-color="#00BEFF"/>
<stop offset="0.5122" stop-color="#00D2FF"/>
<stop offset="0.7604" stop-color="#00DFFF"/>
<stop offset="1" stop-color="#00E3FF"/>
</linearGradient>
<linearGradient id="paint1_linear" x1="46.8672" y1="30.5019" x2="13.35" y2="30.5019" gradientUnits="userSpaceOnUse">
<stop stop-color="#FFE000"/>
<stop offset="0.4087" stop-color="#FFBD00"/>
<stop offset="0.7754" stop-color="#FFA500"/>
<stop offset="1" stop-color="#FF9C00"/>
</linearGradient>
<linearGradient id="paint2_linear" x1="34.3902" y1="33.6834" x2="2.83892" y2="65.2078" gradientUnits="userSpaceOnUse">
<stop stop-color="#FF3A44"/>
<stop offset="1" stop-color="#C31162"/>
</linearGradient>
<linearGradient id="paint3_linear" x1="10.1083" y1="3.01739" x2="24.1974" y2="17.0943" gradientUnits="userSpaceOnUse">
<stop stop-color="#32A071"/>
<stop offset="0.0685" stop-color="#2DA771"/>
<stop offset="0.4762" stop-color="#15CF74"/>
<stop offset="0.8009" stop-color="#06E775"/>
<stop offset="1" stop-color="#00F076"/>
</linearGradient>
</defs>
</svg>
