<svg width="123" height="40" viewBox="0 0 123 40" fill="none" xmlns="http://www.w3.org/2000/svg">
<rect x="-0.000976562" y="-0.00012207" width="123" height="40" rx="4" fill="black"/>
<path d="M62.0458 21.6364C59.8591 21.6364 58.128 23.2727 58.128 25.5455C58.128 27.7273 59.8591 29.4546 62.0458 29.4546C64.2325 29.4546 65.9636 27.8182 65.9636 25.5455C65.9636 23.1818 64.2325 21.6364 62.0458 21.6364ZM62.0458 27.8182C60.8614 27.8182 59.8591 26.8182 59.8591 25.4546C59.8591 24.0909 60.8614 23.0909 62.0458 23.0909C63.2302 23.0909 64.2325 24 64.2325 25.4546C64.2325 26.8182 63.2302 27.8182 62.0458 27.8182ZM53.5725 21.6364C51.3858 21.6364 49.6547 23.2727 49.6547 25.5455C49.6547 27.7273 51.3858 29.4546 53.5725 29.4546C55.7591 29.4546 57.4902 27.8182 57.4902 25.5455C57.4902 23.1818 55.7591 21.6364 53.5725 21.6364ZM53.5725 27.8182C52.388 27.8182 51.3858 26.8182 51.3858 25.4546C51.3858 24.0909 52.388 23.0909 53.5725 23.0909C54.7569 23.0909 55.7591 24 55.7591 25.4546C55.7591 26.8182 54.7569 27.8182 53.5725 27.8182ZM43.4591 22.8182V24.4546H47.3769C47.2858 25.3636 46.9214 26.0909 46.4658 26.5455C45.9191 27.0909 45.008 27.7273 43.4591 27.7273C40.9991 27.7273 39.1769 25.8182 39.1769 23.3636C39.1769 20.9091 41.0902 19 43.4591 19C44.7347 19 45.7369 19.5455 46.4658 20.1818L47.6502 19C46.648 18.0909 45.3725 17.3636 43.5502 17.3636C40.2702 17.3636 37.4458 20.0909 37.4458 23.3636C37.4458 26.6364 40.2702 29.3636 43.5502 29.3636C45.3725 29.3636 46.648 28.8182 47.7414 27.6364C48.8347 26.5455 49.1991 25 49.1991 23.8182C49.1991 23.4546 49.1991 23.0909 49.108 22.8182H43.4591ZM84.8236 24.0909C84.4591 23.1818 83.548 21.6364 81.5436 21.6364C79.5391 21.6364 77.8991 23.1818 77.8991 25.5455C77.8991 27.7273 79.5391 29.4546 81.7258 29.4546C83.4569 29.4546 84.5502 28.3636 84.9147 27.7273L83.6391 26.8182C83.1836 27.4546 82.6369 27.9091 81.7258 27.9091C80.8147 27.9091 80.268 27.5455 79.8125 26.7273L85.0058 24.5455L84.8236 24.0909ZM79.5391 25.3636C79.5391 23.9091 80.7236 23.0909 81.5436 23.0909C82.1814 23.0909 82.8191 23.4546 83.0014 23.9091L79.5391 25.3636ZM75.2569 29.0909H76.988V17.7273H75.2569V29.0909ZM72.5236 22.4546C72.068 22 71.3391 21.5455 70.428 21.5455C68.5147 21.5455 66.6925 23.2727 66.6925 25.4546C66.6925 27.6364 68.4236 29.2727 70.428 29.2727C71.3391 29.2727 72.068 28.8182 72.4325 28.3636H72.5236V28.9091C72.5236 30.3636 71.7036 31.1818 70.428 31.1818C69.4258 31.1818 68.6969 30.4546 68.5147 29.8182L67.0569 30.4546C67.5125 31.4546 68.6058 32.7273 70.5191 32.7273C72.5236 32.7273 74.1636 31.5455 74.1636 28.7273V21.8182H72.5236V22.4546ZM70.5191 27.8182C69.3347 27.8182 68.3325 26.8182 68.3325 25.4546C68.3325 24.0909 69.3347 23.0909 70.5191 23.0909C71.7036 23.0909 72.6147 24.0909 72.6147 25.4546C72.6147 26.8182 71.7036 27.8182 70.5191 27.8182ZM92.7502 17.7273H88.6502V29.0909H90.3814V24.8182H92.7502C94.6636 24.8182 96.4858 23.4546 96.4858 21.2727C96.4858 19.0909 94.6636 17.7273 92.7502 17.7273ZM92.8414 23.1818H90.3814V19.2727H92.8414C94.1169 19.2727 94.8458 20.3636 94.8458 21.1818C94.7547 22.1818 94.0258 23.1818 92.8414 23.1818ZM103.319 21.5455C102.044 21.5455 100.768 22.0909 100.312 23.2727L101.861 23.9091C102.226 23.2727 102.772 23.0909 103.41 23.0909C104.321 23.0909 105.141 23.6364 105.232 24.5455V24.6364C104.959 24.4546 104.23 24.1818 103.501 24.1818C101.861 24.1818 100.221 25.0909 100.221 26.7273C100.221 28.2727 101.588 29.2727 103.046 29.2727C104.23 29.2727 104.777 28.7273 105.232 28.1818H105.324V29.0909H106.964V24.7273C106.781 22.7273 105.232 21.5455 103.319 21.5455ZM103.137 27.8182C102.59 27.8182 101.77 27.5455 101.77 26.8182C101.77 25.9091 102.772 25.6364 103.592 25.6364C104.321 25.6364 104.686 25.8182 105.141 26C104.959 27.0909 104.048 27.8182 103.137 27.8182ZM112.704 21.8182L110.79 26.7273H110.699L108.695 21.8182H106.872L109.879 28.7273L108.148 32.5455H109.879L114.526 21.8182H112.704ZM97.3969 29.0909H99.128V17.7273H97.3969V29.0909Z" fill="white"/>
<path d="M9.47455 8.63623C9.20122 8.90896 9.11011 9.3635 9.11011 9.90896V29.9999C9.11011 30.5453 9.29233 30.9999 9.56566 31.2726L9.65677 31.3635L20.9546 20.0908V19.9999V19.909L9.47455 8.63623Z" fill="url(#paint0_linear)"/>
<path d="M24.5988 23.9089L20.8633 20.1816V19.9998V19.9089L24.5988 16.1816L24.6899 16.2725L29.1544 18.818C30.4299 19.5453 30.4299 20.7271 29.1544 21.4544L24.5988 23.9089Z" fill="url(#paint1_linear)"/>
<path d="M24.6899 23.8181L20.8633 19.9999L9.47437 31.3635C9.92992 31.8181 10.5677 31.8181 11.3877 31.4544L24.6899 23.8181Z" fill="url(#paint2_linear)"/>
<path d="M24.6899 16.1818L11.3877 8.63637C10.5677 8.18182 9.92992 8.27273 9.47437 8.72727L20.8633 20L24.6899 16.1818Z" fill="url(#paint3_linear)"/>
<path opacity="0.2" d="M24.5988 23.7272L11.3877 31.1817C10.6588 31.6363 10.021 31.5454 9.56548 31.1817L9.47437 31.2726L9.56548 31.3635C10.021 31.7272 10.6588 31.8181 11.3877 31.3635L24.5988 23.7272Z" fill="white"/>
<path opacity="0.12" d="M9.47455 31.1815C9.20122 30.9088 9.11011 30.4543 9.11011 29.9088V29.9997C9.11011 30.5452 9.29233 30.9997 9.56566 31.2725V31.1815H9.47455Z" fill="white"/>
<path opacity="0.12" d="M29.1542 21.1817L24.5986 23.7272L24.6897 23.8181L29.1542 21.2726C29.792 20.909 30.0653 20.4544 30.0653 19.9999C30.0653 20.4544 29.7009 20.8181 29.1542 21.1817Z" fill="white"/>
<path opacity="0.25" d="M11.3879 8.72732L29.1546 18.8182C29.7012 19.1819 30.0657 19.5455 30.0657 20C30.0657 19.5455 29.7923 19.091 29.1546 18.7273L11.3879 8.63641C10.1123 7.90914 9.11011 8.45459 9.11011 9.90914V10C9.11011 8.63641 10.1123 8.00005 11.3879 8.72732Z" fill="white"/>
<path d="M38.3568 14.8184H37.719V13.0002H38.2657C38.7212 12.6366 38.9945 11.9093 38.9945 10.9093V8.18201H42.639V13.0002H43.2768V14.8184H42.639V13.6366H38.4479V14.8184H38.3568ZM39.6323 10.9093C39.6323 11.7275 39.4501 12.4547 39.0857 13.0002H41.819V8.81837H39.5412V10.9093H39.6323Z" fill="white" stroke="white" stroke-width="0.2" stroke-miterlimit="10"/>
<path d="M48.6521 12.9091C48.1055 13.4546 47.4677 13.7273 46.6477 13.7273C45.8277 13.7273 45.1899 13.4546 44.6432 12.9091C44.0966 12.3637 43.8232 11.7273 43.8232 10.9091C43.8232 10.0909 44.0966 9.45458 44.6432 8.90912C45.1899 8.36367 45.8277 8.09094 46.6477 8.09094C47.4677 8.09094 48.1055 8.36367 48.6521 8.90912C49.1988 9.45458 49.4721 10.0909 49.4721 10.9091C49.4721 11.7273 49.1988 12.3637 48.6521 12.9091ZM45.1899 12.4546C45.5544 12.8182 46.101 13.0909 46.6477 13.0909C47.1944 13.0909 47.741 12.9091 48.1055 12.4546C48.4699 12.0909 48.7432 11.5455 48.7432 10.9091C48.7432 10.2728 48.561 9.72731 48.1055 9.36367C47.741 9.00003 47.1944 8.72731 46.6477 8.72731C46.101 8.72731 45.5544 8.90912 45.1899 9.36367C44.8255 9.72731 44.5521 10.2728 44.5521 10.9091C44.5521 11.5455 44.7344 12.0909 45.1899 12.4546Z" fill="white" stroke="white" stroke-width="0.2" stroke-miterlimit="10"/>
<path d="M53.0256 13.7273C52.2056 13.7273 51.5678 13.4546 51.0212 12.9091C50.4745 12.3637 50.2012 11.7273 50.2012 10.9091C50.2012 10.0909 50.4745 9.45458 51.0212 8.90912C51.5678 8.36367 52.2056 8.09094 53.0256 8.09094C53.8456 8.09094 54.4834 8.36367 55.0301 9.00003L54.5745 9.45458C54.2101 9.00003 53.6634 8.72731 53.0256 8.72731C52.3878 8.72731 51.9323 8.90912 51.4767 9.36367C51.0212 9.72731 50.839 10.2728 50.839 10.9091C50.839 11.5455 51.0212 12.0909 51.4767 12.4546C51.8412 12.8182 52.3878 13.0909 53.0256 13.0909C53.6634 13.0909 54.2101 12.8182 54.6656 12.2728L55.1212 12.7273C54.8478 13 54.5745 13.2728 54.2101 13.4546C53.8456 13.6364 53.4812 13.7273 53.0256 13.7273Z" fill="white" stroke="white" stroke-width="0.2" stroke-miterlimit="10"/>
<path d="M58.0366 13.6368H57.3077V8.81861H55.7588V8.18225H59.4943V8.81861H57.9455V13.6368H58.0366Z" fill="white" stroke="white" stroke-width="0.2" stroke-miterlimit="10"/>
<path d="M64.3235 8.18225L62.228 12.8186C61.9546 13.455 61.4991 13.8186 60.9524 13.8186C60.7702 13.8186 60.588 13.8186 60.4058 13.7277L60.588 13.0913C60.6791 13.1823 60.8613 13.1823 60.9524 13.1823C61.1346 13.1823 61.2258 13.1823 61.3169 13.0913C61.408 13.0004 61.4991 12.9095 61.5902 12.7277L61.7724 12.2732L59.9502 8.27316H60.7702L62.1369 11.3641L63.5035 8.18225H64.3235Z" fill="white" stroke="white" stroke-width="0.2" stroke-miterlimit="10"/>
<path d="M65.1436 13.6368V8.18225H69.0613V13.6368H68.3324V8.81861H65.7813V13.6368H65.1436Z" fill="white" stroke="white" stroke-width="0.2" stroke-miterlimit="10"/>
<path d="M70.3369 13.6368V8.18225H71.0658V10.5459H73.7991V8.18225H74.528V13.6368H73.7991V11.1823H71.0658V13.6368H70.3369Z" fill="white" stroke="white" stroke-width="0.2" stroke-miterlimit="10"/>
<path d="M80.2676 12.9091C79.7209 13.4546 79.0832 13.7273 78.2632 13.7273C77.4432 13.7273 76.8054 13.4546 76.2587 12.9091C75.712 12.3637 75.4387 11.7273 75.4387 10.9091C75.4387 10.0909 75.712 9.45458 76.2587 8.90912C76.8054 8.36367 77.4432 8.09094 78.2632 8.09094C79.0832 8.09094 79.7209 8.36367 80.2676 8.90912C80.8143 9.45458 81.0876 10.0909 81.0876 10.9091C80.9965 11.7273 80.7232 12.3637 80.2676 12.9091ZM76.7143 12.4546C77.0787 12.8182 77.6254 13.0909 78.1721 13.0909C78.7187 13.0909 79.2654 12.9091 79.6298 12.4546C79.9943 12.0909 80.2676 11.5455 80.2676 10.9091C80.2676 10.2728 80.0854 9.72731 79.6298 9.36367C79.2654 9.00003 78.7187 8.72731 78.1721 8.72731C77.6254 8.72731 77.0787 8.90912 76.7143 9.36367C76.3498 9.72731 76.0765 10.2728 76.0765 10.9091C76.0765 11.5455 76.3498 12.0909 76.7143 12.4546Z" fill="white" stroke="white" stroke-width="0.2" stroke-miterlimit="10"/>
<path d="M83.9121 13.6368V8.18225H85.9166C86.3721 8.18225 86.7366 8.36407 87.0099 8.6368C87.2832 8.90952 87.4654 9.27316 87.4654 9.6368C87.4654 9.90952 87.3743 10.0913 87.2832 10.3641C87.1921 10.5459 87.0099 10.7277 86.7366 10.8186C87.0099 10.9095 87.1921 11.0913 87.3743 11.2732C87.5566 11.455 87.6477 11.7277 87.6477 12.0913C87.6477 12.5459 87.4654 12.9095 87.1921 13.1823C86.8277 13.455 86.4632 13.6368 86.0077 13.6368H83.9121ZM84.641 10.5459H85.9166C86.1899 10.5459 86.3721 10.455 86.5543 10.2732C86.7366 10.0913 86.8277 9.90952 86.8277 9.72771C86.8277 9.54589 86.6454 9.27316 86.5543 9.09134C86.3721 8.90952 86.1899 8.81861 85.9166 8.81861H84.641V10.5459ZM84.641 13.0004H86.0988C86.3721 13.0004 86.5543 12.9095 86.7366 12.7277C86.9188 12.5459 87.0099 12.3641 87.0099 12.0913C87.0099 11.9095 86.9188 11.6368 86.7366 11.455C86.5543 11.2732 86.3721 11.1823 86.0988 11.1823H84.7321V13.0004H84.641Z" fill="white" stroke="white" stroke-width="0.2" stroke-miterlimit="10"/>
<defs>
<linearGradient id="paint0_linear" x1="19.8609" y1="9.73605" x2="4.60417" y2="25.0266" gradientUnits="userSpaceOnUse">
<stop stop-color="#00A0FF"/>
<stop offset="0.00657445" stop-color="#00A1FF"/>
<stop offset="0.2601" stop-color="#00BEFF"/>
<stop offset="0.5122" stop-color="#00D2FF"/>
<stop offset="0.7604" stop-color="#00DFFF"/>
<stop offset="1" stop-color="#00E3FF"/>
</linearGradient>
<linearGradient id="paint1_linear" x1="30.8256" y1="20.0012" x2="8.77958" y2="20.0012" gradientUnits="userSpaceOnUse">
<stop stop-color="#FFE000"/>
<stop offset="0.4087" stop-color="#FFBD00"/>
<stop offset="0.7754" stop-color="#FFA500"/>
<stop offset="1" stop-color="#FF9C00"/>
</linearGradient>
<linearGradient id="paint2_linear" x1="22.6189" y1="22.0873" x2="1.92957" y2="42.8226" gradientUnits="userSpaceOnUse">
<stop stop-color="#FF3A44"/>
<stop offset="1" stop-color="#C31162"/>
</linearGradient>
<linearGradient id="paint3_linear" x1="6.64737" y1="1.97846" x2="15.8861" y2="11.2376" gradientUnits="userSpaceOnUse">
<stop stop-color="#32A071"/>
<stop offset="0.0685" stop-color="#2DA771"/>
<stop offset="0.4762" stop-color="#15CF74"/>
<stop offset="0.8009" stop-color="#06E775"/>
<stop offset="1" stop-color="#00F076"/>
</linearGradient>
</defs>
</svg>
